<svg version="1.1" xmlns="http://www.w3.org/2000/svg" xmlnsXlink="http://www.w3.org/1999/xlink" width="64px" height="64px" viewBox="0,0,256,256"><g fill="#a1a5a6" fill-rule="nonzero" stroke="none" stroke-width="1" stroke-linecap="butt" stroke-linejoin="miter" stroke-miterlimit="10" stroke-dasharray="" stroke-dashoffset="0" font-family="none" font-weight="none" font-size="none" text-anchor="none" style="mix-blend-mode: normal"><g transform="scale(4,4)"><path d="M4,0c-0.39172,0.00025 -0.74722,0.22919 -0.90951,0.58571c-0.16228,0.35652 -0.10146,0.77497 0.1556,1.07054l26.42773,30.34375l-26.42773,30.34375c-0.25707,0.29557 -0.31789,0.71402 -0.1556,1.07054c0.16228,0.35652 0.51779,0.58546 0.90951,0.58571h10c0.28918,-0.00018 0.56413,-0.12555 0.75391,-0.34375l27,-31c0.32728,-0.37629 0.32728,-0.93621 0,-1.3125l-27,-31c-0.18978,-0.2182 -0.46472,-0.34357 -0.75391,-0.34375zM23,0c-0.39172,0.00025 -0.74722,0.22919 -0.90951,0.58571c-0.16228,0.35652 -0.10146,0.77497 0.1556,1.07054l26.42773,30.34375l-26.42773,30.34375c-0.25707,0.29557 -0.31789,0.71402 -0.1556,1.07054c0.16228,0.35652 0.51779,0.58546 0.90951,0.58571h10c0.28918,-0.00018 0.56413,-0.12555 0.75391,-0.34375l27,-31c0.32728,-0.37629 0.32728,-0.93621 0,-1.3125l-27,-31c-0.18978,-0.2182 -0.46472,-0.34357 -0.75391,-0.34375zM6.19922,2h7.34961l26.125,30l-26.12891,30h-7.3457l25.55469,-29.34375c0.32728,-0.37629 0.32728,-0.93621 0,-1.3125zM25.19922,2h7.34961l26.125,30l-26.12891,30h-7.3457l25.55469,-29.34375c0.32728,-0.37629 0.32728,-0.93621 0,-1.3125z"></path></g></g></svg>