<svg width="20" height="20" xmlns="http://www.w3.org/2000/svg" class="fill-current" viewBox="0 0 448 512">
<path d="M296 432h16a8 8 0 008-8V152a8 8 0 00-8-8h-16a8 8 0 00-8 8v272a8 8 0 008 8zm-160 0h16a8 8 0 008-8V152a8 8 0 00-8-8h-16a8 8 0 00-8 8v272a8 8 0 008 8zM440 64H336l-33.6-44.8A48 48 0 00264 0h-80a48 48 0 00-38.4 19.2L112 64H8a8 8 0 00-8 8v16a8 8 0 008 8h24v368a48 48 0 0048 48h288a48 48 0 0048-48V96h24a8 8 0 008-8V72a8 8 0 00-8-8zM171.2 38.4A16.1 16.1 0 01184 32h80a16.1 16.1 0 0112.8 6.4L296 64H152zM384 464a16 16 0 01-16 16H80a16 16 0 01-16-16V96h320zm-168-32h16a8 8 0 008-8V152a8 8 0 00-8-8h-16a8 8 0 00-8 8v272a8 8 0 008 8z"></path>
</svg>